<?xml version="1.0" standalone="no"?><!DOCTYPE svg PUBLIC "-//W3C//DTD SVG 1.1//EN" "http://www.w3.org/Graphics/SVG/1.1/DTD/svg11.dtd"><svg t="1728638856435" class="icon" viewBox="0 0 1024 1024" version="1.1" xmlns="http://www.w3.org/2000/svg" p-id="4276" xmlns:xlink="http://www.w3.org/1999/xlink" width="128" height="128"><path d="M341.333333 874.666667a21.333333 21.333333 0 0 1-21.333333 21.333333H64a21.333333 21.333333 0 0 1 0-42.666667h256a21.333333 21.333333 0 0 1 21.333333 21.333334z m-21.333333-405.333334H64a21.333333 21.333333 0 0 0 0 42.666667h256a21.333333 21.333333 0 0 0 0-42.666667zM64 128h896a21.333333 21.333333 0 0 0 0-42.666667H64a21.333333 21.333333 0 0 0 0 42.666667z m917.333333 138.666667v618.666666a53.393333 53.393333 0 0 1-53.333333 53.333334H480a53.393333 53.393333 0 0 1-53.333333-53.333334V266.666667a53.393333 53.393333 0 0 1 53.333333-53.333334h448a53.393333 53.393333 0 0 1 53.333333 53.333334zM469.333333 554.666667h85.333334V426.666667H469.333333z m0 170.666666h85.333334V597.333333H469.333333z m384-170.666666h85.333334V426.666667h-85.333334z m0 170.666666h85.333334V597.333333h-85.333334z m74.666667-469.333333h-74.666667v128h85.333334V266.666667a10.666667 10.666667 0 0 0-10.666667-10.666667z m-458.666667 10.666667v117.333333h85.333334V256H480a10.666667 10.666667 0 0 0-10.666667 10.666667z m10.666667 629.333333h74.666667v-128H469.333333v117.333333a10.666667 10.666667 0 0 0 10.666667 10.666667z m458.666667-10.666667v-117.333333h-85.333334v128h74.666667a10.666667 10.666667 0 0 0 10.666667-10.666667z" fill="#5C5C66" p-id="4277"></path></svg>